ply
format ascii 1.0
comment Generated by the CGAL library
element vertex 500
property double x
property double y
property double z
property double nx
property double ny
property double nz
end_header
0.612437 0.0289206 0.78999 -0.612129 -0.0291957 -0.790219 
-0.458392 -0.638363 -0.61836 0.458935 0.637005 0.619357 
0.489916 -0.527668 0.693937 -0.489004 0.527856 -0.694437 
-0.573051 0.213295 0.791276 0.573007 -0.213301 -0.791307 
-0.894223 -0.391957 -0.216181 -0.893968 -0.392255 -0.216697 
-0.947124 -0.31789 0.0436023 0.946857 0.318654 -0.0438368 
0.0803453 -0.12291 0.98916 -0.0806644 0.123053 -0.989116 
0.830934 0.541978 -0.125734 -0.830492 -0.54288 0.124757 
-0.763708 0.293508 -0.574982 0.763706 -0.292755 0.575367 
-0.850539 -0.265186 0.454158 0.850397 0.264545 -0.454797 
0.459905 0.847089 0.266322 -0.45774 -0.848279 -0.266266 
-0.262165 -0.10193 -0.959625 -0.262658 -0.101172 -0.95957 
0.850723 0.523133 -0.0510099 -0.850404 -0.523578 0.0517545 
0.359991 0.162157 0.918756 0.360697 0.161848 0.918533 
-0.758797 -0.564775 0.324432 -0.759352 -0.563674 0.325049 
0.0814383 -0.888944 -0.450718 0.0822129 -0.889556 -0.449368 
0.80613 0.426318 0.410374 -0.805756 -0.426754 -0.410656 
0.887404 0.29141 0.357203 -0.887808 -0.291458 -0.356158 
0.146158 -0.377264 0.9145 0.146564 -0.377275 0.91443 
-0.726029 0.45682 0.514002 0.725453 -0.456311 -0.515265 
-0.609469 -0.699741 -0.372706 0.609385 0.699673 0.372972 
0.727909 0.360713 0.583124 -0.727857 -0.360689 -0.583205 
-0.47053 -0.609683 -0.637877 -0.47239 -0.608608 -0.63753 
-0.178752 -0.0649817 0.981746 -0.179269 -0.0653722 0.981626 
-0.151215 0.824289 0.545602 0.149627 -0.824771 -0.545311 
-0.286571 -0.317424 0.903946 0.286967 0.317283 -0.90387 
0.350963 0.838108 0.417613 0.349479 0.839454 0.41615 
0.806486 -0.443391 0.391133 0.805692 -0.444696 0.391287 
-0.898796 -0.132194 -0.41796 0.898853 0.131793 0.417964 
-0.829676 -0.262021 -0.492933 -0.829552 -0.262067 -0.493118 
-0.198512 0.638958 -0.743186 0.199212 -0.639205 0.742786 
0.910526 -0.159278 -0.38154 0.910688 -0.158777 -0.381364 
-0.690707 0.698225 -0.188162 0.690589 -0.698363 0.188084 
0.670319 0.680877 0.295091 0.670935 0.680465 0.294641 
-0.220853 -0.937578 0.268647 -0.221194 -0.93728 0.269406 
-0.343027 -0.882867 -0.320746 0.342549 0.883033 0.320801 
-0.289633 0.807062 -0.514552 -0.290079 0.806894 -0.514564 
0.986931 -0.0354999 -0.157184 -0.986689 0.0357224 0.158644 
-0.557931 -0.777252 0.290846 0.558187 0.777053 -0.290889 
0.130828 -0.561084 0.817354 -0.13134 0.561355 -0.817087 
-0.0131064 -0.704796 -0.709289 0.0143965 0.705162 0.7089 
-0.043326 0.235572 0.970891 -0.0439795 0.23584 0.970796 
0.189374 -0.681577 -0.706817 -0.188703 0.681525 0.707047 
0.511847 0.292513 -0.807743 0.511749 0.292195 -0.80792 
-0.0788985 -0.18772 -0.979049 -0.0779886 -0.187271 -0.979207 
0.288243 0.21046 -0.934143 -0.287705 -0.208703 0.934703 
0.918503 0.362506 0.157927 -0.918607 -0.362061 -0.158346 
-0.29528 -0.89532 -0.333483 -0.294791 -0.895746 -0.332773 
0.215987 -0.450866 0.866065 -0.215433 0.450502 -0.866393 
0.18798 0.6642 0.723534 0.18735 0.666532 0.721551 
0.9788 -0.114048 0.17013 -0.978682 0.115318 -0.16995 
-0.387397 -0.598157 -0.701521 -0.389029 -0.597047 -0.701563 
0.644676 -0.643374 0.412872 0.645114 -0.643942 0.411298 
0.800239 -0.39917 -0.447528 0.799559 -0.399396 -0.448541 
-0.674089 -0.731041 0.105749 0.673557 0.731589 -0.105349 
-0.331785 -0.0969385 -0.938361 -0.331998 -0.0966764 -0.938313 
0.761445 0.527037 -0.377403 -0.761127 -0.526198 0.379211 
-0.294037 -0.0659021 -0.953519 -0.293796 -0.0656477 -0.953611 
0.914319 0.0958304 0.393493 0.914475 0.0964212 0.392987 
0.219462 -0.176377 -0.959546 0.217425 -0.175109 -0.960241 
-0.476455 -0.687905 0.54752 -0.477473 -0.687243 0.547463 
-0.718881 -0.144227 -0.680007 0.719217 0.144858 0.679517 
-0.918734 -0.284995 -0.273322 0.918737 0.285126 0.273176 
0.44032 0.0887264 0.893446 0.439286 0.088785 0.893949 
-0.553452 -0.753228 0.355443 0.553427 0.753171 -0.355602 
-0.249505 0.54166 -0.802715 0.24902 -0.541297 0.803111 
-0.24643 -0.926078 -0.285747 0.24519 0.926174 0.286503 
-0.0285276 0.685069 0.727919 -0.0276359 0.685278 0.727757 
-0.140773 -0.746601 -0.650208 -0.139821 -0.747151 -0.649781 
0.00570399 0.939081 -0.34365 0.00515922 0.939315 -0.343016 
-0.432444 0.845063 -0.314421 0.432387 -0.844993 0.314687 
-0.131342 0.943795 -0.303315 0.130216 -0.944373 0.302 
0.0311239 -0.994006 0.104797 0.035687 -0.993703 0.106214 
0.305012 0.0594232 0.950493 -0.3059 -0.0591616 -0.950224 
0.662316 -0.446832 0.601397 -0.663086 0.445776 -0.601333 
0.70578 0.3675 0.605656 0.706153 0.366801 0.605644 
0.810955 0.406675 -0.420674 0.810967 0.407363 -0.419985 
0.95227 0.274006 -0.134548 0.952053 0.274415 -0.135247 
-0.603285 0.77835 0.173834 -0.603629 0.778139 0.173584 
-0.591566 -0.524643 0.612209 -0.591947 -0.523897 0.612479 
-0.473065 -0.136541 -0.870383 -0.473023 -0.137108 -0.870316 
0.218209 0.848087 -0.482839 -0.217673 -0.848506 0.482345 
0.647509 0.0363568 0.76119 -0.647385 -0.0361127 -0.761307 
0.103846 -0.708797 0.697726 0.104458 -0.708738 0.697695 
-0.949938 0.116929 -0.289735 0.95 -0.117318 0.289374 
-0.577468 -0.803431 -0.145017 0.577208 0.803541 0.145438 
-0.352206 0.699884 -0.62138 0.352027 -0.700233 0.621088 
-0.98587 -0.166947 0.0137465 0.985872 0.166921 -0.0139056 
0.391557 -0.510539 -0.765528 -0.390584 0.511991 0.765055 
-0.716791 -0.342166 0.607563 0.717872 0.341655 -0.606573 
0.0498805 -0.663773 -0.746269 -0.0489103 0.664006 0.746126 
-0.602601 0.558195 -0.570343 -0.602564 0.557788 -0.570779 
-0.35464 0.933158 0.0587147 0.354884 -0.933058 -0.0588186 
-0.854782 0.47599 -0.206836 -0.854832 0.475577 -0.207577 
-0.432631 0.490433 0.756509 0.431506 -0.490878 -0.756863 
-0.92969 -0.117497 -0.349101 0.92978 0.117269 0.348936 
-0.223148 -0.452082 0.863612 -0.222714 -0.452133 0.863698 
-0.610389 -0.783906 0.113652 0.611596 0.782915 -0.113993 
-0.19813 0.94884 0.245859 -0.197779 0.948963 0.245669 
-0.47999 0.113839 -0.869857 -0.480965 0.114141 -0.869278 
-0.0446951 0.567827 0.821934 -0.0443072 0.568203 0.821694 
0.72446 0.400478 0.561049 0.72507 0.400376 0.560332 
0.902261 0.159879 0.400454 0.902474 0.159563 0.4001 
-0.766524 0.544793 -0.340061 -0.767273 0.544581 -0.33871 
0.355651 -0.324966 0.876304 0.355166 -0.324394 0.876713 
-0.0958666 0.784892 -0.612172 0.0953394 -0.785577 0.611374 
-0.31373 -0.137675 0.939478 0.314119 0.13788 -0.939318 
0.0558279 -0.15605 -0.98617 -0.0579234 0.154562 0.986284 
0.232772 -0.543238 -0.806666 -0.233023 0.542685 0.806965 
0.390286 -0.500014 -0.773087 -0.38926 0.501228 0.772817 
-0.86212 0.416059 0.289214 -0.862042 0.416386 0.288975 
-0.429761 0.85375 0.293966 0.430464 -0.853371 -0.294039 
0.645273 0.494295 -0.582491 -0.644816 -0.494946 0.582444 
-0.913485 0.0344381 -0.405411 -0.913659 0.0341417 -0.405046 
0.620319 -0.323877 0.714359 -0.620692 0.323301 -0.714295 
-0.660865 -0.0751095 0.746737 0.660925 0.0742756 -0.746767 
-0.345814 0.517563 -0.78265 0.345647 -0.517056 0.783059 
-0.750147 -0.603949 0.269304 -0.750609 -0.603284 0.269508 
0.488091 0.822603 -0.291705 -0.488879 -0.822468 0.290763 
-0.575178 0.380799 0.72399 0.574869 -0.381 -0.72413 
0.590281 -0.121782 0.797959 -0.590485 0.121926 -0.797785 
-0.101179 -0.447817 -0.888382 0.10052 0.446767 0.888985 
0.1852 0.118579 -0.97552 0.187263 0.116882 -0.975331 
-0.886068 0.420133 0.195888 0.885989 -0.420574 -0.195297 
-0.23826 0.801666 0.548237 0.23722 -0.801189 -0.549384 
0.965734 -0.129883 -0.224697 0.965997 -0.129222 -0.223945 
0.560881 -0.741345 -0.368538 -0.56196 0.740163 0.369269 
0.867973 -0.436136 -0.237503 0.868175 -0.435466 -0.237994 
0.916187 0.345935 -0.202311 -0.916456 -0.345032 0.202635 
0.69645 0.553376 0.456871 0.696285 0.553621 0.456828 
0.973484 -0.211576 0.0869708 -0.973299 0.211844 -0.0883784 
0.635407 -0.556521 -0.535297 0.636525 -0.556143 -0.53436 
0.459162 -0.430881 0.77686 0.459066 -0.431353 0.776655 
-0.309822 -0.887702 0.340581 0.308647 0.887675 -0.341717 
-0.551865 0.524767 -0.648124 0.552286 -0.524908 0.647651 
-0.467023 0.873262 -0.138938 -0.467547 0.873063 -0.138426 
-0.183794 0.697223 -0.692893 0.183543 -0.697222 0.69296 
-0.447783 -0.848584 -0.281773 0.447775 0.848541 0.281915 
0.106315 0.41688 0.902722 -0.106839 -0.416392 -0.902886 
-0.583544 0.790897 -0.184276 -0.583469 0.790924 -0.1844 
0.722538 0.488143 0.489546 0.72215 0.487858 0.490401 
-0.440364 -0.0077056 0.897786 -0.440249 -0.00712062 0.897848 
0.12352 0.515307 -0.848058 -0.1236 -0.514598 0.848476 
-0.870747 -0.432717 0.233571 -0.870408 -0.433448 0.233479 
-0.752605 -0.595805 -0.280363 0.75281 0.595078 0.281354 
-0.978757 0.201523 -0.0377351 -0.978595 0.202324 -0.0376406 
0.413101 0.83979 -0.352278 -0.412932 -0.841168 0.349176 
-0.742618 0.330952 0.582229 0.742582 -0.33182 -0.581779 
0.511468 0.464334 0.723046 0.511138 0.464505 0.723169 
-0.732101 0.65122 0.199849 -0.731492 0.651988 0.199577 
-0.534273 0.4752 -0.699097 0.534382 -0.475574 0.698759 
-0.785752 -0.29553 -0.543375 -0.785084 -0.295915 -0.54413 
0.0991845 0.100142 0.990017 -0.0992411 -0.0995416 -0.990072 
0.360234 -0.715369 0.598731 0.360525 -0.715638 0.598234 
0.798361 -0.601625 -0.0258201 -0.799377 0.600298 0.0252588 
0.262317 0.906912 -0.329699 -0.262244 -0.90649 0.330914 
-0.111109 0.166973 0.979681 -0.111544 0.167334 0.97957 
0.545255 0.195109 -0.815248 0.545451 0.194863 -0.815176 
0.96851 -0.182595 0.169258 -0.96854 0.182822 -0.168837 
-0.667937 -0.628433 0.398664 0.66808 0.628165 -0.398845 
0.192535 0.605363 0.772312 -0.19253 -0.606588 -0.771352 
-0.366024 -0.434876 -0.822745 -0.365441 -0.434848 -0.823019 
0.573685 0.352192 -0.739491 0.573689 0.351764 -0.739691 
0.942914 -0.223303 -0.247082 -0.942732 0.222255 0.248716 
-0.691522 -0.551321 0.466736 -0.692016 -0.551178 0.466173 
0.708505 -0.703812 -0.0516676 -0.707923 0.704586 0.049023 
0.267646 0.606017 0.749072 0.268299 0.607178 0.747897 
-0.442659 0.340797 0.829404 0.443214 -0.341309 -0.828896 
0.833048 0.040769 0.551696 -0.833094 -0.0403083 -0.55166 
0.783626 0.185537 0.59288 0.783394 0.185662 0.593147 
-0.647389 0.396703 -0.65078 -0.648115 0.396817 -0.649987 
0.169479 -0.630318 0.757612 0.16926 -0.630165 0.757788 
-0.667187 0.69193 -0.275852 0.667285 -0.692065 0.275275 
-0.483878 -0.75158 -0.448319 0.484296 0.751503 0.447997 
-0.681238 0.371525 -0.63078 0.681476 -0.372218 0.630114 
-0.8985 -0.00927017 -0.438876 -0.898473 -0.00948155 -0.438927 
-0.822182 -0.538641 0.184075 0.82225 0.538115 -0.185302 
0.566181 -0.0453465 -0.823033 0.563487 -0.0470024 -0.824787 
-0.568847 0.131951 0.811789 0.56978 -0.131533 -0.811203 
-0.873008 -0.418327 -0.250719 0.872613 0.418821 0.251268 
0.852055 -0.425718 0.304576 0.851854 -0.42611 0.304589 
0.763171 0.212369 -0.610303 -0.763877 -0.210882 0.609935 
0.277226 -0.350355 0.894649 -0.277686 0.349679 -0.894771 
0.423802 -0.772207 0.47338 0.424204 -0.773394 0.471075 
-0.947904 -0.206694 -0.242394 0.947932 0.206538 0.242417 
-0.432598 -0.830896 -0.349957 -0.432589 -0.830898 -0.349963 
0.372161 0.885062 0.279574 -0.372072 -0.886016 -0.276655 
-0.291864 0.937337 -0.190301 0.29219 -0.937108 0.190927 
0.49162 -0.556378 0.669891 -0.490645 0.556446 -0.670548 
-0.55935 0.511067 -0.652639 0.559458 -0.511661 0.652081 
-0.562854 0.202796 -0.801292 -0.563314 0.201696 -0.801247 
-0.63025 0.271716 -0.727293 -0.630317 0.271615 -0.727273 
-0.650728 -0.735108 0.190183 -0.650421 -0.7355 0.189717 
-0.254247 -0.768739 -0.586855 -0.253751 -0.768998 -0.586731 
-0.0808071 -0.468376 0.879826 -0.0814268 -0.467853 0.880047 
0.624702 -0.780714 0.0152889 0.624158 -0.781124 0.0165176 
-0.202631 0.14697 0.968164 0.202854 -0.147528 -0.968032 
-0.476993 0.742496 0.470295 0.476878 -0.742453 -0.470479 
-0.828276 0.524319 0.197609 -0.828531 0.524215 0.196812 
-0.181476 0.923169 0.338859 -0.181359 0.922769 0.340009 
-0.222334 0.850351 0.476938 0.220736 -0.850409 -0.477578 
-0.488685 0.214134 -0.845774 -0.489131 0.2129 -0.845828 
0.739743 -0.594144 0.31587 -0.740031 0.592712 -0.317877 
-0.343807 -0.313215 -0.885264 -0.343413 -0.31381 -0.885207 
-0.157042 0.97692 -0.144792 -0.156634 0.976868 -0.145583 
-0.600925 -0.70526 0.376162 0.600198 0.705479 -0.376911 
-0.551975 -0.334319 -0.763908 -0.552523 -0.33348 -0.763878 
-0.478115 0.728352 -0.490825 -0.477249 0.728728 -0.491111 
-0.974943 0.222446 0.00184326 0.975001 -0.22219 -0.00229956 
0.583895 0.301405 -0.753805 -0.583906 -0.301456 0.753776 
0.222989 -0.902082 -0.369491 0.22123 -0.902061 -0.370598 
-0.992893 0.118745 0.00798033 0.992769 -0.119766 -0.00805606 
-0.106625 0.193648 -0.97526 -0.106397 0.192647 -0.975483 
-0.700255 -0.701304 0.133475 -0.70031 -0.701336 0.133015 
0.141975 0.440088 -0.88666 0.141532 0.440707 -0.886423 
0.239525 -0.473859 -0.847399 -0.240216 0.473511 0.847398 
-0.47082 0.306041 0.827447 0.471408 -0.306389 -0.826982 
0.0949432 0.991686 -0.0868606 0.0951868 0.991657 -0.0869287 
0.255029 0.947735 0.191723 -0.257209 -0.946998 -0.192452 
-0.0894255 0.772917 0.628173 0.0908813 -0.772985 -0.627881 
0.919584 -0.0567363 -0.388775 -0.920044 0.0559932 0.387794 
-0.577137 -0.799677 -0.165621 0.577494 0.799281 0.166283 
0.824494 -0.327061 -0.461779 0.823397 -0.329325 -0.462127 
-0.922322 0.0336028 0.384958 0.922006 -0.0347242 -0.385616 
-0.731136 -0.277673 -0.623168 -0.730211 -0.27689 -0.6246 
0.689088 0.629674 -0.358704 0.690147 0.62866 -0.358445 
0.261041 -0.220868 0.939721 -0.260563 0.22241 -0.93949 
-0.680528 -0.292388 -0.671856 0.679512 0.293071 0.672587 
0.0778227 0.485893 -0.870547 -0.0763582 -0.484036 0.87171 
-0.616195 0.524033 0.587957 0.616899 -0.523162 -0.587994 
-0.619679 0.360642 -0.69709 -0.620302 0.360383 -0.696671 
-0.733705 0.641835 -0.222991 0.733485 -0.641393 0.224979 
0.00929051 0.815877 -0.578151 -0.00939307 -0.815654 0.578463 
-0.426876 -0.399374 0.811343 -0.427566 -0.399098 0.811115 
0.137142 -0.89022 0.434398 -0.136811 0.890008 -0.434935 
-0.650999 0.427791 -0.627053 0.650574 -0.427658 0.627584 
0.0167686 -0.993231 0.114939 0.0208299 -0.992932 0.116842 
-0.472469 -0.268778 -0.839364 -0.472993 -0.268744 -0.839079 
-0.164826 0.208824 0.963963 0.164695 -0.20978 -0.963778 
-0.659286 0.632294 0.406875 -0.659282 0.632312 0.406852 
0.296389 0.534233 0.791674 -0.296319 -0.535181 -0.79106 
0.781506 -0.623244 0.0285611 -0.781801 0.62303 -0.024929 
0.171346 -0.647808 0.742284 0.1711 -0.647679 0.742453 
-0.878423 0.314345 -0.359946 0.878505 -0.314354 0.359736 
-0.967951 -0.215372 0.129175 -0.967816 -0.215516 0.129943 
0.805148 -0.592994 -0.00974294 -0.804359 0.594033 0.0114218 
0.638939 0.699589 0.319894 0.63988 0.698994 0.319312 
-0.760385 0.518127 -0.391612 -0.760649 0.518258 -0.390925 
-0.145993 -0.682888 0.715786 -0.147317 -0.684367 0.7141 
0.120263 0.47347 -0.872561 0.119867 0.474728 -0.871932 
0.378019 -0.603546 0.702022 0.378612 -0.603472 0.701765 
-0.461183 0.16801 -0.871254 -0.461411 0.168601 -0.871019 
0.364176 -0.607195 -0.70618 -0.364007 0.606553 0.706818 
0.39866 -0.895103 -0.199652 0.398365 -0.895844 -0.196896 
-0.833508 0.170087 -0.525676 -0.833292 0.16957 -0.526184 
-0.239764 0.933417 0.266919 -0.239452 0.933628 0.266461 
-0.372727 -0.495434 -0.784614 -0.372513 -0.495943 -0.784394 
0.276058 0.686463 -0.672726 -0.277029 -0.686327 0.672465 
0.792365 -0.0561961 0.607454 -0.792676 0.0567132 -0.606999 
-0.120253 0.775551 -0.619726 0.119356 -0.775748 0.619652 
-0.781048 0.624215 0.0178852 -0.781135 0.624114 0.0176235 
0.0486769 -0.839487 0.541195 0.0488585 -0.840159 0.540136 
-0.568499 0.279453 0.773767 0.568552 -0.278414 -0.774102 
-0.166569 0.0238448 -0.985741 -0.165257 0.0244693 -0.985947 
-0.237476 -0.856992 0.457351 -0.237121 -0.857665 0.456273 
-0.328242 -0.810778 -0.48466 0.327899 0.810776 0.484897 
0.435513 0.303796 0.84737 0.436495 0.30353 0.84696 
0.00580783 -0.807636 -0.589652 0.00578732 -0.806931 -0.590618 
-0.981049 0.175567 0.0819705 0.981276 -0.174774 -0.0809438 
0.385231 -0.264007 0.884249 0.385014 -0.264444 0.884213 
0.795962 0.13151 -0.590889 -0.79659 -0.130605 0.590243 
0.345996 0.445184 -0.825892 -0.346232 -0.445489 0.825629 
0.603384 0.633181 0.484778 0.602707 0.63402 0.484522 
0.949837 -0.282497 0.13418 0.949925 -0.282553 0.133439 
-0.357013 0.813541 -0.459013 -0.358149 0.813125 -0.458866 
0.942367 -0.215998 0.255518 0.942682 -0.215473 0.254798 
0.409099 -0.528836 0.74362 -0.409965 0.528862 -0.743124 
-0.054902 0.0638864 0.996446 0.0545527 -0.0639641 -0.99646 
0.221213 0.102191 0.969857 -0.221756 -0.101503 -0.969805 
-0.572861 0.127099 0.809738 0.573908 -0.126637 -0.809069 
0.449615 0.860885 0.238167 -0.446878 -0.862682 -0.236813 
0.304677 -0.696568 0.649588 0.304685 -0.696596 0.649555 
0.138979 0.692185 0.708212 -0.138637 -0.690856 -0.709576 
0.666466 -0.124836 0.73501 0.665915 -0.124704 0.735531 
0.978302 0.205304 0.0278594 0.97802 0.206671 0.0276298 
-0.480047 -0.858784 -0.179013 0.480607 0.858487 0.178931 
0.629942 0.235187 0.740176 -0.629743 -0.234593 -0.740533 
0.685502 0.0623758 0.725394 -0.685197 -0.062607 -0.725662 
0.524396 0.456638 -0.718673 -0.524131 -0.456983 0.718647 
0.379735 0.0416242 -0.924158 0.378962 0.0409458 -0.924506 
-0.164756 -0.0139749 -0.986235 -0.164372 -0.0133111 -0.986309 
0.842553 -0.0982451 0.529577 -0.842836 0.0985397 -0.529072 
0.588314 0.797616 -0.133023 0.586226 0.799082 -0.133444 
0.108302 -0.799247 0.591165 0.108086 -0.79975 0.590523 
-0.0915003 0.995469 0.0258594 -0.0909696 0.995518 0.0258481 
-0.848917 -0.477286 -0.227018 0.848422 0.478018 0.227329 
-0.478201 0.866022 0.146046 -0.478276 0.866113 0.145258 
0.841006 -0.082187 0.534747 0.840784 -0.083183 0.534943 
-0.836025 -0.399806 -0.375788 0.835508 0.400717 0.375968 
-0.503552 0.26885 -0.82107 -0.503441 0.268264 -0.821329 
-0.949426 0.185133 0.253607 -0.949371 0.184996 0.253912 
0.585773 -0.10403 0.803771 -0.585829 0.103957 -0.803739 
-0.358278 0.619131 -0.698795 0.357714 -0.619178 0.699042 
0.546304 -0.482905 -0.684364 -0.547017 0.483247 0.683553 
-0.835642 0.466234 -0.290395 0.835116 -0.466229 0.291912 
-0.76223 -0.55977 0.325059 -0.762805 -0.558635 0.325661 
0.103223 0.970703 0.216979 -0.103005 -0.971069 -0.215439 
-0.993547 0.0547957 0.0993109 0.99361 -0.055235 -0.0984282 
-0.887368 0.455534 0.0711864 -0.887098 0.455953 0.0718653 
-0.783268 0.0209793 -0.62133 0.783685 -0.0211149 0.6208 
0.878227 -0.112106 0.464919 -0.877857 0.11297 -0.465409 
0.567285 -0.194134 -0.800313 0.56991 -0.193119 -0.798691 
-0.849747 0.0914931 0.519191 0.850149 -0.091937 -0.518453 
0.316942 -0.792432 -0.521152 -0.318223 0.79236 0.52048 
-0.497763 -0.537851 0.680403 -0.497852 -0.538081 0.680156 
0.497601 0.385099 -0.777233 0.497267 0.385277 -0.777359 
-0.643012 0.00533833 0.765838 0.641245 -0.00418294 -0.767325 
-0.620851 -0.749094 0.231089 -0.620589 -0.749466 0.230587 
-0.0557179 -0.093226 0.994085 -0.0555225 -0.0936147 0.994059 
0.648155 0.756564 0.0866363 0.647325 0.757225 0.087064 
0.85153 0.0405863 -0.522732 0.850741 0.0425942 -0.523857 
0.532115 0.447657 -0.718649 -0.53194 -0.447942 0.718601 
0.833953 -0.093323 0.543887 -0.834108 0.0939065 -0.543548 
-0.524319 0.771821 0.359696 -0.524715 0.771852 0.359054 
-0.878194 -0.0442598 -0.476253 0.878109 0.0445629 0.476381 
-0.365414 -0.930693 -0.0168099 0.363745 0.931354 0.0164166 
-0.304423 0.629671 -0.714732 0.303688 -0.629519 0.715178 
0.619643 0.602239 -0.50334 -0.61978 -0.602296 0.503103 
0.976422 -0.0859458 -0.198023 0.975943 -0.0868691 -0.199972 
-0.0280109 0.962706 -0.269095 -0.028844 0.962825 -0.268582 
-0.624616 -0.388883 0.677218 0.624541 0.388834 -0.677316 
0.305253 -0.945449 -0.113782 -0.306079 0.94503 0.115038 
0.448233 0.146066 -0.881903 0.448886 0.144646 -0.881805 
0.953039 0.299993 0.0414873 -0.953339 -0.29906 -0.0413296 
-0.235696 0.00367615 0.97182 0.235901 -0.00367421 -0.97177 
-0.0112763 0.811127 -0.584761 0.0112996 -0.811384 0.584404 
0.218672 0.703116 0.676617 0.218055 0.704239 0.675648 
-0.149435 -0.797509 -0.584507 -0.148384 -0.797501 -0.584786 
-0.952146 -0.0674007 0.29812 -0.952062 -0.0673946 0.298388 
-0.864433 0.48226 -0.14206 -0.864776 0.481697 -0.141884 
0.529634 0.843478 0.0896198 0.530226 0.84295 0.0910829 
-0.0432863 0.971434 -0.233328 0.043027 -0.971575 0.232788 
-0.860473 0.0557979 0.506432 0.860547 -0.0562067 -0.50626 
0.768084 0.612876 -0.185553 0.767735 0.613477 -0.185009 
0.424842 -0.756166 -0.497717 -0.424485 0.756499 0.497515 
0.126018 -0.609782 0.782487 0.125077 -0.609695 0.782705 
-0.354648 -0.436071 0.827083 -0.355662 -0.436487 0.826429 
0.0565505 -0.526442 -0.848328 -0.0546636 0.526521 0.848403 
-0.795588 0.190301 -0.575174 0.795517 -0.190042 0.575358 
0.68639 -0.726261 -0.0375923 0.686058 -0.726739 -0.0342613 
-0.331692 0.503133 0.798021 -0.329685 0.503437 0.79866 
0.0312741 0.338384 0.940488 0.0309953 0.339304 0.940166 
0.139724 -0.975885 0.16771 -0.133277 0.977062 -0.166091 
0.0910808 0.686011 -0.721867 0.0917522 0.686165 -0.721636 
0.488685 0.605059 0.628562 -0.488854 -0.60458 -0.628892 
0.205968 -0.644134 0.736661 0.205522 -0.64446 0.7365 
-0.500936 0.769583 0.395985 -0.501808 0.76919 0.395647 
-0.57161 0.710947 0.409655 -0.571448 0.711555 0.408824 
0.258888 -0.946634 0.191992 -0.253765 0.947895 -0.192611 
-0.390144 0.876835 -0.280978 0.390214 -0.876871 0.280768 
-0.437303 0.496845 -0.749607 0.43697 -0.497025 0.749683 
0.694865 0.269722 -0.666642 -0.695193 -0.269467 0.666404 
-0.565255 0.0640577 -0.822425 -0.565076 0.0655354 -0.822432 
-0.91115 -0.255768 -0.323092 0.911134 0.255758 0.323146 
0.633123 -0.266026 0.726902 -0.633693 0.265946 -0.726434 
-0.938167 0.113905 -0.326907 0.938176 -0.114696 0.326606 
-0.811413 -0.0421525 0.582951 0.810803 0.0418632 -0.58382 
-0.102994 0.986169 0.129855 -0.104133 0.985959 0.130543 
-0.687572 0.458501 0.563047 0.68762 -0.458274 -0.563173 
-0.158472 -0.722979 0.672449 -0.159115 -0.722709 0.672588 
-0.925284 -0.21963 -0.309213 0.925321 0.219504 0.309189 
-0.101024 0.237501 0.96612 -0.101447 0.237579 0.966056 
0.65447 -0.106383 0.748567 0.653879 -0.106377 0.749083 
0.529057 -0.843386 -0.0938002 0.526438 -0.845255 -0.091689 
0.0373291 0.3133 0.94892 0.0371376 0.314166 0.948641 
0.977267 0.188287 -0.0974522 0.977079 0.189257 -0.0974637 
-0.191562 -0.206744 0.959459 0.191468 0.206442 -0.959542 
-0.17045 -0.349841 0.921172 0.169333 0.350174 -0.921252 
-0.960388 0.143525 -0.238862 -0.960109 0.144665 -0.239296 
-0.312127 0.517274 0.796871 -0.31226 0.518073 0.7963 
-0.0583325 -0.954863 -0.291262 -0.0576909 -0.955498 -0.2893 
-0.982336 -0.144862 -0.11845 -0.982384 -0.144549 -0.118435 
-0.240456 -0.353847 -0.903866 0.240669 0.354449 0.903573 
0.830959 0.40206 0.384519 -0.830935 -0.402192 -0.384434 
0.547623 0.19448 0.81381 -0.548104 -0.195048 -0.81335 
-0.132662 0.0232324 0.990889 0.132694 -0.0228676 -0.990893 
-0.851328 0.52346 0.0350585 -0.851633 0.522935 0.0355009 
0.663703 -0.396162 -0.634471 0.666066 -0.396151 -0.631996 
-0.0932192 -0.426835 0.899512 -0.0932617 -0.427011 0.899424 
0.913854 0.405138 -0.0271079 0.9139 0.404989 -0.0277784 
0.254535 0.344915 0.903463 0.254479 0.345098 0.903409 
0.135115 -0.333029 0.933186 0.135625 -0.332484 0.933306 
0.237357 -0.333227 -0.912481 -0.237679 0.332762 0.912567 
-0.873873 0.43591 0.215242 0.87393 -0.435897 -0.215034 
0.831444 0.171029 -0.528631 0.831415 0.169454 -0.529183 
-0.97838 -0.0914546 -0.185494 -0.978451 -0.0911097 -0.185289 
-0.314043 -0.559607 0.766953 -0.315086 -0.560016 0.766226 
0.472925 0.554896 -0.684421 0.472466 0.55524 -0.684459 
-0.257582 -0.44913 0.855531 -0.257562 -0.449033 0.855588 
-0.943397 -0.0998476 -0.316279 -0.943394 -0.0998685 -0.316282 
-0.43705 -0.667971 -0.60233 0.437091 0.666655 0.603757 
-0.114164 -0.688744 0.71596 -0.115626 -0.68934 0.715151 
-0.371888 -0.901613 0.220892 -0.370525 -0.902244 0.220608 
-0.744052 0.52486 0.413411 -0.743739 0.524772 0.414085 
0.105747 0.936922 -0.33316 0.106441 0.937264 -0.331973 
-0.492124 -0.861048 -0.128104 0.492693 0.860813 0.127495 
-0.933834 0.323048 0.153601 0.933826 -0.323103 -0.153537 
-0.237251 0.172446 -0.95602 -0.236143 0.173507 -0.956102 
-0.996881 -0.0789153 0.00109133 0.996908 0.0785699 -0.00123033 
-0.193719 -0.114459 0.974357 0.194058 0.114519 -0.974283 
-0.501325 -0.798139 -0.334138 0.501503 0.797895 0.334452 
-0.28285 -0.862634 -0.419354 -0.282594 -0.862705 -0.419382 
-0.0435926 0.901492 0.430594 -0.0468 0.901682 0.42986 
-0.440535 0.64165 0.627865 -0.439956 0.641871 0.628044 
-0.312466 0.501551 -0.806729 0.312479 -0.50134 0.806855 
0.570064 -0.291452 0.768168 -0.570664 0.291039 -0.767879 
0.0110941 -0.452197 -0.891849 0.0111758 -0.452235 -0.891829 
-0.272116 -0.298125 -0.914918 -0.272156 -0.298342 -0.914835 
-0.815091 -0.467748 -0.341816 0.814917 0.467998 0.34189 
0.987501 0.0379674 -0.152974 0.987922 0.0364614 -0.150604 
-0.794938 0.120757 -0.594551 0.794908 -0.120778 0.594587 
-0.36164 -0.863346 -0.351922 0.361221 0.863389 0.352247 
0.643015 -0.703821 -0.301939 -0.643288 0.703243 0.302703 
-0.878218 -0.476651 -0.0392025 -0.878397 -0.476311 -0.0393307 
-0.575707 -0.596085 -0.559683 -0.574479 -0.597123 -0.559838 
0.0574875 -0.741327 0.668677 0.0575229 -0.741698 0.668263 
0.11858 0.855295 -0.50439 0.1193 0.855266 -0.504269 
0.732973 -0.238642 -0.637025 0.732123 -0.240318 -0.637373 
-0.00621309 0.498143 -0.867073 0.00477551 -0.498263 0.867013 
0.794738 0.567549 0.215127 -0.794224 -0.568271 -0.215119 
-0.682749 0.667144 0.297948 -0.68252 0.667524 0.29762 
-0.741297 -0.656945 -0.137487 -0.741063 -0.657069 -0.138154 
-0.866503 0.225044 0.445564 0.866322 -0.224309 -0.446286 
0.335065 0.205486 0.919514 0.335516 0.205334 0.919384 
0.547863 0.770813 -0.325106 -0.547313 -0.772105 0.32296 
-0.335097 0.94081 0.0508632 -0.335577 0.940653 0.0505856 
-0.925976 0.184051 0.329686 0.925773 -0.184095 -0.330233 
-0.567031 -0.793826 -0.21981 -0.567404 -0.793759 -0.219086 
0.545197 -0.823264 -0.158102 -0.543902 0.824405 0.156614 
-0.969777 -0.0795279 -0.230667 0.96987 0.0793866 0.230328 
-0.367687 -0.169751 -0.914326 -0.368642 -0.169323 -0.91402 
0.0632131 -0.640113 0.765676 0.0639254 -0.639999 0.765712 
0.80684 -0.58948 -0.0390199 -0.807972 0.587937 0.0388744 
-0.954202 -0.299136 0.00404836 0.954055 0.299597 -0.00446132 
0.342443 -0.663497 -0.66521 -0.341903 0.663743 0.665243 
-0.306583 0.0310729 0.951337 0.307484 -0.0314666 -0.951033 
0.114194 0.631992 -0.766515 0.114918 0.631236 -0.76703 
0.173703 0.303441 0.936884 0.173756 0.304126 0.936652 
-0.401587 0.683548 0.6095 -0.401375 0.683693 0.609476 
0.188171 -0.904518 -0.382673 -0.187583 0.905348 0.380996 
0.0562444 -0.980423 -0.188698 0.0587463 -0.980193 -0.18913 
0.971974 -0.0205526 0.234187 0.972335 -0.0191071 0.232809 
0.813644 0.49022 -0.312518 -0.813046 -0.490273 0.313989 
0.933917 0.259278 0.246117 -0.933612 -0.260142 -0.246363 
-0.327617 0.20916 -0.921368 0.327078 -0.210643 0.921222 
0.919206 0.350829 -0.178825 0.919529 0.349761 -0.179258 
0.57185 0.272586 -0.773747 -0.571697 -0.272307 0.773958 
0.946826 0.0349592 -0.319843 -0.946953 -0.0338762 0.31958 
-0.1462 0.940817 -0.305759 0.145444 -0.941306 0.304611 
0.689655 -0.623441 0.368371 -0.690258 0.622226 -0.369295 
0.0293211 0.011358 0.999506 -0.0297602 -0.0111104 -0.999495 
-0.460154 -0.30173 0.834995 0.460298 0.30162 -0.834956 
0.148477 0.323365 0.934553 0.148749 0.324009 0.934287 
0.705519 -0.494672 0.507487 -0.70658 0.493933 -0.50673 
-0.300391 -0.294788 -0.907119 -0.300167 -0.295065 -0.907103 
0.64792 0.323604 -0.689551 0.647751 0.323515 -0.689751 
0.94013 9.06922e-05 0.340815 -0.940246 -0.000435843 -0.340495 
0.909039 0.124574 0.397656 0.909237 0.125039 0.397056 
-0.359865 0.502621 0.786047 -0.358592 0.502809 0.786508 
-0.392862 -0.919595 0.00218724 0.3921 0.919918 -0.00297426 
-0.325483 -0.832165 0.448956 -0.323903 -0.83374 0.447174 
-0.703016 -0.211694 0.678936 0.703121 0.212126 -0.678692 
0.489232 -0.692955 0.529589 0.488513 -0.693837 0.529099 
0.731876 -0.300362 -0.61167 0.730644 -0.302171 -0.612252 
0.19684 0.823972 -0.531341 -0.19712 -0.823915 0.531326 
0.895605 -0.43786 0.078546 0.895726 -0.437696 0.0780784 
0.41412 0.700972 -0.58064 -0.413423 -0.700713 0.581449 
-0.800418 -0.237299 0.550473 0.799809 0.237503 -0.551269 
-0.43141 0.372987 -0.821441 -0.43108 0.373012 -0.821603 
0.825491 0.563917 -0.0237342 -0.824488 -0.565377 0.023845 
-0.342906 0.335063 0.877581 -0.342584 0.335913 0.877382 
0.408345 0.412669 -0.814223 -0.408308 -0.413738 0.813699 
-0.933639 -0.357794 0.0173489 -0.933648 -0.357776 0.0172559 
-0.98417 -0.153262 0.0889946 0.984172 0.153116 -0.0892246 
-0.107947 -0.482663 0.869128 -0.107497 -0.48158 0.869784 
-0.963428 -0.237834 -0.12346 -0.963443 -0.237768 -0.12347 
-0.871027 0.316127 0.375999 -0.871278 0.31554 0.37591 
-0.958282 -0.267592 0.100445 0.958168 0.267751 -0.101109 
-0.540135 0.837076 -0.0869352 -0.540306 0.83697 -0.0868946 
0.689232 0.163111 0.705942 0.688628 0.163389 0.706467 
0.53877 -0.721967 0.434155 0.538657 -0.722826 0.432864 
0.373937 -0.805614 -0.459518 -0.37314 0.805848 0.459756 
0.909207 -0.135606 0.393641 -0.909143 0.135586 -0.393797 
0.132321 0.304074 0.943414 0.132486 0.304793 0.943159 
0.792521 0.294201 0.534187 0.792139 0.294704 0.534477 
-0.698021 0.503043 0.509622 -0.69799 0.50273 0.509973 
0.926112 -0.297785 0.231606 0.926082 -0.298824 0.230381 
0.134108 -0.201144 0.970338 -0.132864 0.202066 -0.970318 
-0.997536 -0.0499518 0.0492595 0.997548 0.0497036 -0.0492798 
0.153083 0.27993 0.947737 0.152942 0.280536 0.94758 
