ply
format ascii 1.0
comment Generated by the CGAL library
element vertex 500
property double x
property double y
property double z
element face 996
property list uchar int vertex_indices
end_header
0.612437 0.0289206 0.78999 
0.842553 -0.0982451 0.529577 
0.806486 -0.443391 0.391133 
-0.551865 0.524767 -0.648124 
-0.352206 0.699884 -0.62138 
0.689655 -0.623441 0.368371 
-0.220853 -0.937578 0.268647 
-0.325483 -0.832165 0.448956 
-0.952146 -0.0674007 0.29812 
0.933917 0.259278 0.246117 
-0.898796 -0.132194 -0.41796 
0.364176 -0.607195 -0.70618 
-0.19813 0.94884 0.245859 
-0.102994 0.986169 0.129855 
-0.237476 -0.856992 0.457351 
0.635407 -0.556521 -0.535297 
0.373937 -0.805614 -0.459518 
0.96851 -0.182595 0.169258 
0.926112 -0.297785 0.231606 
0.68639 -0.726261 -0.0375923 
0.624702 -0.780714 0.0152889 
-0.600925 -0.70526 0.376162 
-0.938167 0.113905 -0.326907 
0.385231 -0.264007 0.884249 
0.852055 -0.425718 0.304576 
0.914319 0.0958304 0.393493 
-0.0131064 -0.704796 -0.709289 
-0.140773 -0.746601 -0.650208 
-0.0583325 -0.954863 -0.291262 
0.0167686 -0.993231 0.114939 
0.39866 -0.895103 -0.199652 
-0.158472 -0.722979 0.672449 
-0.312466 0.501551 -0.806729 
0.986931 -0.0354999 -0.157184 
0.987501 0.0379674 -0.152974 
0.620319 -0.323877 0.714359 
0.763171 0.212369 -0.610303 
0.841006 -0.082187 0.534747 
0.85153 0.0405863 -0.522732 
-0.0958666 0.784892 -0.612172 
0.603384 0.633181 0.484778 
-0.178752 -0.0649817 0.981746 
0.570064 -0.291452 0.768168 
0.590281 -0.121782 0.797959 
0.239525 -0.473859 -0.847399 
0.237357 -0.333227 -0.912481 
-0.458392 -0.638363 -0.61836 
-0.387397 -0.598157 -0.701521 
0.629942 0.235187 0.740176 
0.305012 0.0594232 0.950493 
-0.849747 0.0914931 0.519191 
-0.866503 0.225044 0.445564 
-0.871027 0.316127 0.375999 
-0.0932192 -0.426835 0.899512 
-0.460154 -0.30173 0.834995 
0.942914 -0.223303 -0.247082 
0.867973 -0.436136 -0.237503 
-0.440364 -0.0077056 0.897786 
-0.497763 -0.537851 0.680403 
0.895605 -0.43786 0.078546 
0.792521 0.294201 0.534187 
-0.660865 -0.0751095 0.746737 
0.585773 -0.10403 0.803771 
0.666466 -0.124836 0.73501 
-0.235696 0.00367615 0.97182 
0.800239 -0.39917 -0.447528 
0.824494 -0.327061 -0.461779 
0.949837 -0.282497 0.13418 
0.909207 -0.135606 0.393641 
0.0803453 -0.12291 0.98916 
0.638939 0.699589 0.319894 
0.971974 -0.0205526 0.234187 
0.488091 0.822603 -0.291705 
0.262317 0.906912 -0.329699 
0.953039 0.299993 0.0414873 
0.103223 0.970703 0.216979 
-0.164826 0.208824 0.963963 
-0.572861 0.127099 0.809738 
0.0991845 0.100142 0.990017 
-0.193719 -0.114459 0.974357 
-0.501325 -0.798139 -0.334138 
0.532115 0.447657 -0.718649 
0.524396 0.456638 -0.718673 
0.0814383 -0.888944 -0.450718 
0.00580783 -0.807636 -0.589652 
-0.43705 -0.667971 -0.60233 
-0.993547 0.0547957 0.0993109 
-0.997536 -0.0499518 0.0492595 
-0.478115 0.728352 -0.490825 
-0.667937 -0.628433 0.398664 
-0.476455 -0.687905 0.54752 
0.215987 -0.450866 0.866065 
0.378019 -0.603546 0.702022 
-0.850539 -0.265186 0.454158 
-0.191562 -0.206744 0.959459 
0.560881 -0.741345 -0.368538 
0.188171 -0.904518 -0.382673 
0.0949432 0.991686 -0.0868606 
0.105747 0.936922 -0.33316 
0.567285 -0.194134 -0.800313 
0.189374 -0.681577 -0.706817 
0.529057 -0.843386 -0.0938002 
0.304677 -0.696568 0.649588 
-0.822182 -0.538641 0.184075 
-0.98417 -0.153262 0.0889946 
0.342443 -0.663497 -0.66521 
0.360234 -0.715369 0.598731 
0.423802 -0.772207 0.47338 
0.739743 -0.594144 0.31587 
-0.257582 -0.44913 0.855531 
-0.314043 -0.559607 0.766953 
-0.624616 -0.388883 0.677218 
0.277226 -0.350355 0.894649 
0.424842 -0.756166 -0.497717 
0.391557 -0.510539 -0.765528 
0.643015 -0.703821 -0.301939 
0.792365 -0.0561961 0.607454 
0.942367 -0.215998 0.255518 
0.902261 0.159879 0.400454 
0.783626 0.185537 0.59288 
0.887404 0.29141 0.357203 
0.916187 0.345935 -0.202311 
0.583895 0.301405 -0.753805 
0.57185 0.272586 -0.773747 
0.449615 0.860885 0.238167 
0.529634 0.843478 0.0896198 
-0.0915003 0.995469 0.0258594 
-0.107947 -0.482663 0.869128 
-0.0557179 -0.093226 0.994085 
0.722538 0.488143 0.489546 
-0.114164 -0.688744 0.71596 
0.355651 -0.324966 0.876304 
0.261041 -0.220868 0.939721 
-0.29528 -0.89532 -0.333483 
-0.732101 0.65122 0.199849 
-0.603285 0.77835 0.173834 
-0.86212 0.416059 0.289214 
-0.698021 0.503043 0.509622 
-0.864433 0.48226 -0.14206 
-0.800418 -0.237299 0.550473 
-0.620851 -0.749094 0.231089 
0.135115 -0.333029 0.933186 
-0.31373 -0.137675 0.939478 
-0.392862 -0.919595 0.00218724 
-0.365414 -0.930693 -0.0168099 
-0.591566 -0.524643 0.612209 
-0.716791 -0.342166 0.607563 
0.137142 -0.89022 0.434398 
0.258888 -0.946634 0.191992 
-0.343027 -0.882867 -0.320746 
-0.24643 -0.926078 -0.285747 
0.316942 -0.792432 -0.521152 
0.222989 -0.902082 -0.369491 
-0.0112763 0.811127 -0.584761 
0.00929051 0.815877 -0.578151 
0.1852 0.118579 -0.97552 
-0.106625 0.193648 -0.97526 
-0.647389 0.396703 -0.65078 
-0.681238 0.371525 -0.63078 
0.546304 -0.482905 -0.684364 
-0.524319 0.771821 0.359696 
-0.682749 0.667144 0.297948 
0.19684 0.823972 -0.531341 
-0.183794 0.697223 -0.692893 
-0.291864 0.937337 -0.190301 
0.489232 -0.692955 0.529589 
0.705519 -0.494672 0.507487 
0.139724 -0.975885 0.16771 
0.0311239 -0.994006 0.104797 
0.305253 -0.945449 -0.113782 
-0.758797 -0.564775 0.324432 
-0.691522 -0.551321 0.466736 
0.0562444 -0.980423 -0.188698 
0.49162 -0.556378 0.669891 
-0.372727 -0.495434 -0.784614 
-0.703016 -0.211694 0.678936 
0.221213 0.102191 0.969857 
-0.659286 0.632294 0.406875 
0.489916 -0.527668 0.693937 
0.459162 -0.430881 0.77686 
0.878227 -0.112106 0.464919 
0.685502 0.0623758 0.725394 
0.65447 -0.106383 0.748567 
0.919584 -0.0567363 -0.388775 
0.663703 -0.396162 -0.634471 
0.910526 -0.159278 -0.38154 
0.976422 -0.0859458 -0.198023 
0.973484 -0.211576 0.0869708 
0.965734 -0.129883 -0.224697 
0.833048 0.040769 0.551696 
0.918503 0.362506 0.157927 
0.978302 0.205304 0.0278594 
-0.0788985 -0.18772 -0.979049 
-0.478201 0.866022 0.146046 
-0.540135 0.837076 -0.0869352 
0.488685 0.605059 0.628562 
0.296389 0.534233 0.791674 
0.0293211 0.011358 0.999506 
0.132321 0.304074 0.943414 
0.0373291 0.3133 0.94892 
-0.181476 0.923169 0.338859 
0.647509 0.0363568 0.76119 
0.80613 0.426318 0.410374 
0.69645 0.553376 0.456871 
-0.17045 -0.349841 0.921172 
0.134108 -0.201144 0.970338 
0.148477 0.323365 0.934553 
0.106315 0.41688 0.902722 
0.232772 -0.543238 -0.806666 
-0.744052 0.52486 0.413411 
-0.887368 0.455534 0.0711864 
-0.35464 0.933158 0.0587147 
-0.432444 0.845063 -0.314421 
-0.616195 0.524033 0.587957 
-0.575178 0.380799 0.72399 
-0.306583 0.0310729 0.951337 
-0.860473 0.0557979 0.506432 
-0.996881 -0.0789153 0.00109133 
-0.829676 -0.262021 -0.492933 
-0.731136 -0.277673 -0.623168 
-0.8985 -0.00927017 -0.438876 
-0.878194 -0.0442598 -0.476253 
-0.97838 -0.0914546 -0.185494 
0.0574875 -0.741327 0.668677 
0.103846 -0.708797 0.697726 
0.0498805 -0.663773 -0.746269 
0.689088 0.629674 -0.358704 
0.276058 0.686463 -0.672726 
0.472925 0.554896 -0.684421 
0.11858 0.855295 -0.50439 
-0.304423 0.629671 -0.714732 
0.218209 0.848087 -0.482839 
-0.198512 0.638958 -0.743186 
0.0110941 -0.452197 -0.891849 
0.0565505 -0.526442 -0.848328 
-0.343807 -0.313215 -0.885264 
-0.472469 -0.268778 -0.839364 
-0.473065 -0.136541 -0.870383 
-0.565255 0.0640577 -0.822425 
-0.101179 -0.447817 -0.888382 
-0.164756 -0.0139749 -0.986235 
0.0558279 -0.15605 -0.98617 
-0.467023 0.873262 -0.138938 
-0.667187 0.69193 -0.275852 
-0.1462 0.940817 -0.305759 
-0.289633 0.807062 -0.514552 
-0.254247 -0.768739 -0.586855 
0.0486769 -0.839487 0.541195 
-0.47053 -0.609683 -0.637877 
0.545197 -0.823264 -0.158102 
-0.811413 -0.0421525 0.582951 
-0.643012 0.00533833 0.765838 
0.633123 -0.266026 0.726902 
0.409099 -0.528836 0.74362 
0.70578 0.3675 0.605656 
0.833953 -0.093323 0.543887 
0.946826 0.0349592 -0.319843 
0.566181 -0.0453465 -0.823033 
0.9788 -0.114048 0.17013 
0.94013 9.06922e-05 0.340815 
0.830959 0.40206 0.384519 
0.694865 0.269722 -0.666642 
0.645273 0.494295 -0.582491 
0.379735 0.0416242 -0.924158 
0.219462 -0.176377 -0.959546 
-0.335097 0.94081 0.0508632 
0.372161 0.885062 0.279574 
0.350963 0.838108 0.417613 
-0.202631 0.14697 0.968164 
0.254535 0.344915 0.903463 
0.218672 0.703116 0.676617 
0.138979 0.692185 0.708212 
0.511468 0.464334 0.723046 
-0.101024 0.237501 0.96612 
-0.111109 0.166973 0.979681 
-0.132662 0.0232324 0.990889 
0.547623 0.19448 0.81381 
0.727909 0.360713 0.583124 
0.72446 0.400478 0.561049 
0.794738 0.567549 0.215127 
0.648155 0.756564 0.0866363 
0.670319 0.680877 0.295091 
0.146158 -0.377264 0.9145 
0.130828 -0.561084 0.817354 
-0.0808071 -0.468376 0.879826 
0.359991 0.162157 0.918756 
0.44032 0.0887264 0.893446 
0.335065 0.205486 0.919514 
0.435513 0.303796 0.84737 
-0.054902 0.0638864 0.996446 
0.390286 -0.500014 -0.773087 
-0.974943 0.222446 0.00184326 
-0.828276 0.524319 0.197609 
-0.851328 0.52346 0.0350585 
-0.781048 0.624215 0.0178852 
-0.476993 0.742496 0.470295 
-0.57161 0.710947 0.409655 
-0.500936 0.769583 0.395985 
-0.429761 0.85375 0.293966 
-0.922322 0.0336028 0.384958 
-0.925976 0.184051 0.329686 
-0.949426 0.185133 0.253607 
-0.933834 0.323048 0.153601 
-0.833508 0.170087 -0.525676 
-0.795588 0.190301 -0.575174 
-0.763708 0.293508 -0.574982 
-0.166569 0.0238448 -0.985741 
-0.619679 0.360642 -0.69709 
-0.534273 0.4752 -0.699097 
-0.91115 -0.255768 -0.323092 
-0.918734 -0.284995 -0.273322 
-0.913485 0.0344381 -0.405411 
-0.785752 -0.29553 -0.543375 
-0.848917 -0.477286 -0.227018 
-0.752605 -0.595805 -0.280363 
-0.982336 -0.144862 -0.11845 
-0.98587 -0.166947 0.0137465 
-0.145993 -0.682888 0.715786 
0.53877 -0.721967 0.434155 
-0.815091 -0.467748 -0.341816 
-0.328242 -0.810778 -0.48466 
-0.447783 -0.848584 -0.281773 
-0.567031 -0.793826 -0.21981 
0.810955 0.406675 -0.420674 
0.0910808 0.686011 -0.721867 
-0.358278 0.619131 -0.698795 
-0.00621309 0.498143 -0.867073 
0.0778227 0.485893 -0.870547 
0.114194 0.631992 -0.766515 
0.545255 0.195109 -0.815248 
-0.131342 0.943795 -0.303315 
-0.0280109 0.962706 -0.269095 
-0.120253 0.775551 -0.619726 
-0.357013 0.813541 -0.459013 
0.644676 -0.643374 0.412872 
0.662316 -0.446832 0.601397 
-0.149435 -0.797509 -0.584507 
-0.967951 -0.215372 0.129175 
-0.371888 -0.901613 0.220892 
-0.750147 -0.603949 0.269304 
0.108302 -0.799247 0.591165 
-0.680528 -0.292388 -0.671856 
-0.551975 -0.334319 -0.763908 
0.731876 -0.300362 -0.61167 
0.732973 -0.238642 -0.637025 
0.781506 -0.623244 0.0285611 
0.708505 -0.703812 -0.0516676 
-0.568847 0.131951 0.811789 
0.689232 0.163111 0.705942 
0.977267 0.188287 -0.0974522 
0.768084 0.612876 -0.185553 
0.830934 0.541978 -0.125734 
0.909039 0.124574 0.397656 
0.831444 0.171029 -0.528631 
0.795962 0.13151 -0.590889 
0.761445 0.527037 -0.377403 
0.619643 0.602239 -0.50334 
0.41412 0.700972 -0.58064 
0.588314 0.797616 -0.133023 
0.850723 0.523133 -0.0510099 
0.825491 0.563917 -0.0237342 
0.345996 0.445184 -0.825892 
-0.239764 0.933417 0.266919 
0.255029 0.947735 0.191723 
0.459905 0.847089 0.266322 
0.267646 0.606017 0.749072 
-0.426876 -0.399374 0.811343 
-0.568499 0.279453 0.773767 
0.0312741 0.338384 0.940488 
-0.043326 0.235572 0.970891 
-0.992893 0.118745 0.00798033 
-0.978757 0.201523 -0.0377351 
-0.981049 0.175567 0.0819705 
-0.886068 0.420133 0.195888 
-0.873873 0.43591 0.215242 
-0.766524 0.544793 -0.340061 
-0.742618 0.330952 0.582229 
-0.432631 0.490433 0.756509 
0.192535 0.605363 0.772312 
0.18798 0.6642 0.723534 
-0.23826 0.801666 0.548237 
-0.345814 0.517563 -0.78265 
-0.503552 0.26885 -0.82107 
-0.488685 0.214134 -0.845774 
-0.602601 0.558195 -0.570343 
-0.733705 0.641835 -0.222991 
-0.718881 -0.144227 -0.680007 
-0.835642 0.466234 -0.290395 
-0.878423 0.314345 -0.359946 
-0.949938 0.116929 -0.289735 
-0.878218 -0.476651 -0.0392025 
-0.575707 -0.596085 -0.559683 
-0.969777 -0.0795279 -0.230667 
-0.947904 -0.206694 -0.242394 
0.169479 -0.630318 0.757612 
0.205968 -0.644134 0.736661 
0.126018 -0.609782 0.782487 
0.0632131 -0.640113 0.765676 
-0.432598 -0.830896 -0.349957 
-0.577137 -0.799677 -0.165621 
0.288243 0.21046 -0.934143 
0.413101 0.83979 -0.352278 
-0.437303 0.496845 -0.749607 
-0.249505 0.54166 -0.802715 
0.120263 0.47347 -0.872561 
0.12352 0.515307 -0.848058 
0.497601 0.385099 -0.777233 
0.511847 0.292513 -0.807743 
-0.331785 -0.0969385 -0.938361 
-0.237251 0.172446 -0.95602 
-0.0432863 0.971434 -0.233328 
-0.157042 0.97692 -0.144792 
-0.483878 -0.75158 -0.448319 
-0.947124 -0.31789 0.0436023 
-0.958282 -0.267592 0.100445 
-0.309822 -0.887702 0.340581 
0.80684 -0.58948 -0.0390199 
0.805148 -0.592994 -0.00974294 
0.95227 0.274006 -0.134548 
0.547863 0.770813 -0.325106 
0.813644 0.49022 -0.312518 
0.448233 0.146066 -0.881903 
-0.354648 -0.436071 0.827083 
0.153083 0.27993 0.947737 
-0.0446951 0.567827 0.821934 
-0.0285276 0.685069 0.727919 
-0.690707 0.698225 -0.188162 
-0.760385 0.518127 -0.391612 
-0.854782 0.47599 -0.206836 
-0.583544 0.790897 -0.184276 
-0.47082 0.306041 0.827447 
-0.573051 0.213295 0.791276 
-0.342906 0.335063 0.877581 
-0.440535 0.64165 0.627865 
-0.151215 0.824289 0.545602 
-0.222334 0.850351 0.476938 
-0.726029 0.45682 0.514002 
-0.650999 0.427791 -0.627053 
-0.43141 0.372987 -0.821441 
-0.55935 0.511067 -0.652639 
-0.562854 0.202796 -0.801292 
-0.783268 0.0209793 -0.62133 
-0.794938 0.120757 -0.594551 
-0.960388 0.143525 -0.238862 
-0.836025 -0.399806 -0.375788 
-0.609469 -0.699741 -0.372706 
-0.963428 -0.237834 -0.12346 
0.408345 0.412669 -0.814223 
0.141975 0.440088 -0.88666 
0.573685 0.352192 -0.739491 
0.00570399 0.939081 -0.34365 
-0.28285 -0.862634 -0.419354 
-0.36164 -0.863346 -0.351922 
-0.480047 -0.858784 -0.179013 
-0.553452 -0.753228 0.355443 
-0.262165 -0.10193 -0.959625 
-0.366024 -0.434876 -0.822745 
0.798361 -0.601625 -0.0258201 
0.919206 0.350829 -0.178825 
-0.0894255 0.772917 0.628173 
-0.223148 -0.452082 0.863612 
-0.442659 0.340797 0.829404 
-0.331692 0.503133 0.798021 
-0.0435926 0.901492 0.430594 
-0.687572 0.458501 0.563047 
-0.461183 0.16801 -0.871254 
-0.327617 0.20916 -0.921368 
-0.92969 -0.117497 -0.349101 
-0.925284 -0.21963 -0.309213 
0.171346 -0.647808 0.742284 
-0.894223 -0.391957 -0.216181 
-0.674089 -0.731041 0.105749 
-0.577468 -0.803431 -0.145017 
-0.954202 -0.299136 0.00404836 
-0.870747 -0.432717 0.233571 
0.64792 0.323604 -0.689551 
-0.933639 -0.357794 0.0173489 
-0.557931 -0.777252 0.290846 
-0.492124 -0.861048 -0.128104 
-0.367687 -0.169751 -0.914326 
-0.300391 -0.294788 -0.907119 
-0.47999 0.113839 -0.869857 
0.913854 0.405138 -0.0271079 
-0.286571 -0.317424 0.903946 
0.173703 0.303441 0.936884 
-0.390144 0.876835 -0.280978 
-0.401587 0.683548 0.6095 
-0.359865 0.502621 0.786047 
-0.63025 0.271716 -0.727293 
-0.943397 -0.0998476 -0.316279 
-0.873008 -0.418327 -0.250719 
-0.76223 -0.55977 0.325059 
-0.272116 -0.298125 -0.914918 
-0.240456 -0.353847 -0.903866 
-0.312127 0.517274 0.796871 
-0.294037 -0.0659021 -0.953519 
-0.741297 -0.656945 -0.137487 
-0.650728 -0.735108 0.190183 
-0.610389 -0.783906 0.113652 
-0.700255 -0.701304 0.133475 
3 182 201 0 
3 2 180 1 
3 325 3 4 
3 286 62 0 
3 31 247 223 
3 108 5 20 
3 241 264 45 
3 415 6 14 
3 125 73 97 
3 270 195 267 
3 31 90 7 
3 301 86 8 
3 201 276 0 
3 9 120 118 
3 309 468 10 
3 100 208 11 
3 93 171 146 
3 265 12 13 
3 14 6 147 
3 159 15 11 
3 151 113 16 
3 252 255 116 
3 286 23 62 
3 67 17 18 
3 101 19 20 
3 89 339 21 
3 22 388 303 
3 376 51 50 
3 23 49 132 
3 2 108 24 
3 352 189 25 
3 27 26 84 
3 47 27 246 
3 150 28 144 
3 172 29 144 
3 101 169 30 
3 223 130 31 
3 466 438 32 
3 34 33 256 
3 35 179 178 
3 323 353 36 
3 20 19 345 
3 180 189 37 
3 68 2 24 
3 344 354 38 
3 244 153 39 
3 40 195 129 
3 48 254 272 
3 41 79 128 
3 23 42 43 
3 129 195 278 
3 299 301 8 
3 45 290 44 
3 47 85 46 
3 272 288 48 
3 286 49 23 
3 51 299 50 
3 52 51 376 
3 53 282 141 
3 366 483 54 
3 56 55 59 
3 16 95 30 
3 215 430 57 
3 439 437 384 
3 90 110 58 
3 85 391 46 
3 20 318 148 
3 59 108 345 
3 202 278 60 
3 250 175 61 
3 62 182 0 
3 43 182 62 
3 63 43 252 
3 215 64 268 
3 15 184 65 
3 65 66 56 
3 187 17 67 
3 59 18 24 
3 68 117 71 
3 24 18 68 
3 69 197 128 
3 267 40 70 
3 9 25 71 
3 125 358 72 
3 72 73 125 
3 279 260 190 
3 257 354 344 
3 418 482 74 
3 126 75 97 
3 268 274 76 
3 347 431 77 
3 176 423 78 
3 64 142 79 
3 31 110 90 
3 156 326 448 
3 341 219 386 
3 412 80 445 
3 262 81 82 
3 151 83 84 
3 246 85 47 
3 8 86 87 
3 384 243 88 
3 251 431 376 
3 373 210 302 
3 171 89 90 
3 302 301 52 
3 282 283 91 
3 102 106 92 
3 474 491 93 
3 445 314 391 
3 142 483 94 
3 112 282 91 
3 113 15 95 
3 172 28 96 
3 73 98 97 
3 98 229 450 
3 45 264 99 
3 225 208 100 
3 442 488 238 
3 409 495 466 
3 249 101 30 
3 102 224 340 
3 390 103 476 
3 415 14 7 
3 104 217 316 
3 310 470 446 
3 11 15 105 
3 249 19 101 
3 165 106 107 
3 2 166 108 
3 250 251 50 
3 61 251 250 
3 460 109 110 
3 58 366 111 
3 141 112 132 
3 43 42 252 
3 63 116 182 
3 63 182 43 
3 105 113 151 
3 185 344 38 
3 105 15 113 
3 159 11 114 
3 185 55 66 
3 56 416 115 
3 68 180 2 
3 37 189 116 
3 117 258 71 
3 18 117 68 
3 118 120 60 
3 119 118 60 
3 121 353 323 
3 258 191 71 
3 190 120 9 
3 323 420 121 
3 450 229 154 
3 407 122 123 
3 280 358 125 
3 363 124 125 
3 13 75 126 
3 463 270 267 
3 53 460 127 
3 197 289 128 
3 269 288 196 
3 129 278 202 
3 130 397 127 
3 112 131 132 
3 49 176 69 
3 132 49 69 
3 115 15 65 
3 151 100 105 
3 133 451 150 
3 93 337 474 
3 27 174 239 
3 234 26 239 
3 292 209 161 
3 135 134 161 
3 292 136 209 
3 209 436 137 
3 294 385 138 
3 294 134 135 
3 470 313 390 
3 146 139 93 
3 339 140 21 
3 222 392 393 
3 132 205 141 
3 54 483 142 
3 141 204 53 
3 338 143 144 
3 93 299 8 
3 146 145 111 
3 395 253 91 
3 148 107 147 
3 453 149 150 
3 150 451 28 
3 151 152 96 
3 28 83 96 
3 16 152 151 
3 30 152 16 
3 447 228 82 
3 324 153 154 
3 156 448 155 
3 328 361 405 
3 437 157 158 
3 192 233 239 
3 156 409 32 
3 426 243 385 
3 159 290 99 
3 99 290 45 
3 296 160 161 
3 229 162 154 
3 245 163 4 
3 244 485 164 
3 24 108 59 
3 173 165 166 
3 152 172 96 
3 29 167 147 
3 148 101 20 
3 167 168 169 
3 491 170 171 
3 6 338 144 
3 148 169 101 
3 169 168 172 
3 92 106 173 
3 7 14 31 
3 248 342 174 
3 241 233 192 
3 95 115 249 
3 30 95 249 
3 54 175 111 
3 287 423 176 
3 209 177 161 
3 57 251 61 
3 179 253 178 
3 91 253 179 
3 23 43 62 
3 179 42 23 
3 91 131 112 
3 179 131 91 
3 252 116 63 
3 25 189 180 
3 180 37 1 
3 116 181 182 
3 66 55 56 
3 38 183 185 
3 344 184 99 
3 66 344 185 
3 183 188 185 
3 188 256 186 
3 187 67 59 
3 188 55 185 
3 186 187 188 
3 258 33 34 
3 34 191 258 
3 420 351 121 
3 9 352 25 
3 181 189 119 
3 74 482 190 
3 34 349 191 
3 492 455 192 
3 264 263 99 
3 191 418 74 
3 202 203 129 
3 194 193 211 
3 272 195 196 
3 280 364 70 
3 463 75 200 
3 365 378 196 
3 78 197 69 
3 423 198 199 
3 267 75 463 
3 78 289 197 
3 424 273 368 
3 362 435 200 
3 348 276 201 
3 279 203 202 
3 40 203 70 
3 94 204 205 
3 94 205 128 
3 141 282 112 
3 127 284 53 
3 368 206 207 
3 196 288 272 
3 290 208 44 
3 84 100 151 
3 27 336 246 
3 84 336 27 
3 209 136 52 
3 291 210 138 
3 265 242 211 
3 243 212 88 
3 377 213 214 
3 268 432 215 
3 250 299 93 
3 299 216 50 
3 315 217 222 
3 315 393 446 
3 218 221 386 
3 294 426 385 
3 341 391 219 
3 10 220 221 
3 222 217 370 
3 370 443 222 
3 223 397 130 
3 340 224 223 
3 102 92 395 
3 395 224 102 
3 90 454 7 
3 150 149 133 
3 225 26 234 
3 239 26 27 
3 355 356 226 
3 228 227 357 
3 231 229 98 
3 232 403 230 
3 357 162 231 
3 324 326 232 
3 234 233 44 
3 239 233 234 
3 100 26 225 
3 84 26 100 
3 47 174 27 
3 479 235 236 
3 481 237 238 
3 342 456 174 
3 456 493 239 
3 192 240 241 
3 98 331 97 
3 164 485 242 
3 265 164 242 
3 429 212 243 
3 245 333 244 
3 332 163 245 
3 166 5 108 
3 345 108 20 
3 2 335 166 
3 1 335 2 
3 152 169 172 
3 30 169 152 
3 336 451 246 
3 144 28 172 
3 90 145 171 
3 171 145 146 
3 29 6 144 
3 147 6 29 
3 14 247 31 
3 147 247 14 
3 47 248 174 
3 46 248 47 
3 95 15 115 
3 16 113 95 
3 56 115 65 
3 115 346 249 
3 61 175 54 
3 93 139 250 
3 57 77 251 
3 50 251 376 
3 35 42 179 
3 252 42 35 
3 253 173 178 
3 395 92 253 
3 23 131 179 
3 132 131 23 
3 254 348 119 
3 181 201 182 
3 252 335 255 
3 255 335 1 
3 183 256 188 
3 38 256 183 
3 257 344 99 
3 261 354 329 
3 187 55 188 
3 59 55 187 
3 256 33 186 
3 9 74 190 
3 258 17 187 
3 59 67 18 
3 191 74 9 
3 71 191 9 
3 25 259 71 
3 180 259 25 
3 120 260 60 
3 190 260 120 
3 358 419 72 
3 329 354 257 
3 123 122 261 
3 228 262 82 
3 155 263 264 
3 448 400 155 
3 411 126 97 
3 265 126 411 
3 362 12 265 
3 211 362 265 
3 125 364 280 
3 97 363 125 
3 364 266 267 
3 70 364 267 
3 200 435 463 
3 275 274 268 
3 207 206 269 
3 69 176 78 
3 271 270 463 
3 278 195 272 
3 369 273 274 
3 289 275 128 
3 288 276 48 
3 254 277 278 
3 267 195 40 
3 129 203 40 
3 280 281 279 
3 70 281 280 
3 79 142 94 
3 128 79 94 
3 61 54 57 
3 139 175 250 
3 69 205 132 
3 128 205 69 
3 284 282 53 
3 397 283 284 
3 276 285 286 
3 269 287 288 
3 78 369 289 
3 196 207 269 
3 114 290 159 
3 11 208 114 
3 100 11 105 
3 114 208 290 
3 87 86 370 
3 302 210 291 
3 292 210 373 
3 52 136 302 
3 294 293 292 
3 138 293 294 
3 292 134 294 
3 161 134 292 
3 194 426 294 
3 4 3 88 
3 296 213 295 
3 77 431 251 
3 298 297 295 
3 160 297 298 
3 51 300 299 
3 52 300 51 
3 250 216 299 
3 50 216 250 
3 8 87 104 
3 372 301 302 
3 221 220 303 
3 488 304 305 
3 427 437 158 
3 3 402 308 
3 240 306 241 
3 174 456 239 
3 438 307 308 
3 10 221 218 
3 310 309 444 
3 303 311 22 
3 219 312 386 
3 496 313 314 
3 316 217 315 
3 446 316 315 
3 444 309 218 
3 222 393 315 
3 110 317 127 
3 31 317 110 
3 284 283 282 
3 127 397 284 
3 318 107 148 
3 334 165 318 
3 391 314 319 
3 451 320 246 
3 322 321 453 
3 144 453 150 
3 261 262 323 
3 350 355 226 
3 232 326 403 
3 324 163 39 
3 73 231 98 
3 231 401 357 
3 232 163 324 
3 230 381 325 
3 257 421 329 
3 327 326 405 
3 227 361 328 
3 407 123 329 
3 45 233 241 
3 44 233 45 
3 240 495 306 
3 32 409 466 
3 411 330 244 
3 450 331 98 
3 245 39 332 
3 39 163 332 
3 4 333 245 
3 88 333 4 
3 334 5 166 
3 107 106 147 
3 35 335 252 
3 178 335 35 
3 148 167 169 
3 147 167 148 
3 28 451 336 
3 96 83 151 
3 58 145 90 
3 111 145 58 
3 8 337 93 
3 104 337 8 
3 415 338 6 
3 499 497 339 
3 247 340 223 
3 147 340 247 
3 342 391 341 
3 386 342 341 
3 65 343 66 
3 66 343 344 
3 346 457 345 
3 115 416 346 
3 146 175 139 
3 111 175 146 
3 347 77 57 
3 76 432 268 
3 166 165 334 
3 92 173 253 
3 48 348 254 
3 48 276 348 
3 181 348 201 
3 119 348 181 
3 65 184 343 
3 343 184 344 
3 117 17 258 
3 18 17 117 
3 187 33 258 
3 186 33 187 
3 256 349 34 
3 349 418 191 
3 280 360 350 
3 360 351 350 
3 118 352 9 
3 116 189 181 
3 255 37 116 
3 1 37 255 
3 68 259 180 
3 71 259 68 
3 202 260 279 
3 60 260 202 
3 354 353 38 
3 36 353 354 
3 262 356 355 
3 262 355 323 
3 350 358 280 
3 419 356 357 
3 279 360 280 
3 190 360 279 
3 350 226 358 
3 482 359 360 
3 447 361 228 
3 241 155 264 
3 13 126 265 
3 200 75 13 
3 295 435 298 
3 211 298 362 
3 213 433 295 
3 298 435 362 
3 363 75 267 
3 97 75 363 
3 124 266 364 
3 125 124 364 
3 289 274 275 
3 64 275 268 
3 379 378 365 
3 207 424 368 
3 54 142 57 
3 41 64 79 
3 254 278 272 
3 278 277 60 
3 365 195 270 
3 196 195 365 
3 281 203 279 
3 70 203 281 
3 58 422 366 
3 111 366 54 
3 287 285 288 
3 0 276 286 
3 176 285 287 
3 288 285 276 
3 431 367 376 
3 199 368 369 
3 234 208 225 
3 44 208 234 
3 291 371 370 
3 138 371 291 
3 291 372 302 
3 370 372 291 
3 136 373 302 
3 373 374 292 
3 293 210 292 
3 138 210 293 
3 385 428 138 
3 375 243 427 
3 135 194 294 
3 135 193 194 
3 214 464 376 
3 461 487 377 
3 214 461 377 
3 432 430 215 
3 271 378 379 
3 486 459 380 
3 177 213 296 
3 161 177 296 
3 300 301 299 
3 52 301 300 
3 438 381 32 
3 440 382 383 
3 384 437 427 
3 385 243 375 
3 441 442 238 
3 386 441 238 
3 428 387 388 
3 489 389 22 
3 390 313 496 
3 444 312 391 
3 218 309 10 
3 446 393 310 
3 87 217 104 
3 370 217 87 
3 443 389 392 
3 393 392 489 
3 130 317 31 
3 127 317 130 
3 283 394 395 
3 223 224 397 
3 469 396 397 
3 91 283 395 
3 248 391 342 
3 46 391 248 
3 398 452 321 
3 321 149 453 
3 453 399 322 
3 314 313 319 
3 421 400 407 
3 228 361 227 
3 73 401 231 
3 72 401 73 
3 231 162 229 
3 227 162 357 
3 230 325 4 
3 325 381 402 
3 448 326 327 
3 32 403 156 
3 403 326 156 
3 448 404 405 
3 81 406 82 
3 449 122 407 
3 481 408 237 
3 156 306 409 
3 331 330 410 
3 97 410 411 
3 244 39 245 
3 39 153 324 
3 230 163 232 
3 4 163 230 
3 318 5 334 
3 20 5 318 
3 29 168 167 
3 172 168 29 
3 336 83 28 
3 84 83 336 
3 398 80 412 
3 391 412 445 
3 473 413 414 
3 316 414 104 
3 496 499 390 
3 7 454 415 
3 238 237 386 
3 306 495 409 
3 346 19 249 
3 345 19 346 
3 59 416 56 
3 457 417 345 
3 335 173 166 
3 178 173 335 
3 173 106 165 
3 318 165 107 
3 159 184 15 
3 99 184 159 
3 256 418 349 
3 121 418 256 
3 118 189 352 
3 119 189 118 
3 261 36 354 
3 323 36 261 
3 226 356 419 
3 226 419 358 
3 350 351 420 
3 190 482 360 
3 263 400 421 
3 329 421 407 
3 298 193 135 
3 211 193 298 
3 135 160 298 
3 161 160 135 
3 200 12 362 
3 13 12 200 
3 363 266 124 
3 267 266 363 
3 270 379 365 
3 271 379 270 
3 41 275 64 
3 128 275 41 
3 215 142 64 
3 57 142 215 
3 119 277 254 
3 60 277 119 
3 110 422 58 
3 205 204 141 
3 49 285 176 
3 286 285 49 
3 199 369 78 
3 484 198 423 
3 425 424 271 
3 78 423 199 
3 372 86 301 
3 370 86 372 
3 136 374 373 
3 292 374 136 
3 429 426 194 
3 427 243 384 
3 388 387 427 
3 375 428 385 
3 194 242 429 
3 211 242 194 
3 430 461 214 
3 430 367 431 
3 347 430 431 
3 57 430 347 
3 424 494 432 
3 368 273 369 
3 377 433 213 
3 380 434 435 
3 464 436 376 
3 213 464 214 
3 308 157 437 
3 466 383 438 
3 439 3 308 
3 308 402 438 
3 384 3 439 
3 88 3 384 
3 308 437 439 
3 488 440 238 
3 221 442 441 
3 386 221 441 
3 303 442 221 
3 388 305 303 
3 427 305 388 
3 158 305 427 
3 371 443 370 
3 443 428 388 
3 391 312 219 
3 319 444 391 
3 310 468 309 
3 393 468 310 
3 443 392 222 
3 392 389 489 
3 224 469 397 
3 395 469 224 
3 85 412 391 
3 398 320 452 
3 445 80 322 
3 412 320 398 
3 470 476 446 
3 390 476 470 
3 227 328 324 
3 407 400 447 
3 324 162 227 
3 154 162 324 
3 328 326 324 
3 405 326 328 
3 155 400 263 
3 405 361 448 
3 327 404 448 
3 405 404 327 
3 449 406 81 
3 407 406 449 
3 81 475 449 
3 329 123 261 
3 447 406 407 
3 82 406 447 
3 155 306 156 
3 241 306 155 
3 410 330 411 
3 97 331 410 
3 450 153 244 
3 154 153 450 
3 452 320 451 
3 133 452 451 
3 478 399 453 
3 90 21 454 
3 454 477 415 
3 144 478 453 
3 479 455 492 
3 236 235 456 
3 416 457 346 
3 416 417 457 
3 59 417 416 
3 345 417 59 
3 340 106 102 
3 147 106 340 
3 256 353 121 
3 38 353 256 
3 401 419 357 
3 72 419 401 
3 420 355 350 
3 323 355 420 
3 418 458 482 
3 121 458 418 
3 257 263 421 
3 99 263 257 
3 296 297 160 
3 295 297 296 
3 380 459 434 
3 196 378 207 
3 483 109 460 
3 127 460 110 
3 369 274 289 
3 274 273 76 
3 287 484 423 
3 269 484 287 
3 429 243 426 
3 485 212 242 
3 371 428 443 
3 138 428 371 
3 411 164 265 
3 244 164 411 
3 432 461 430 
3 494 462 432 
3 214 367 430 
3 376 367 214 
3 378 424 207 
3 271 424 378 
3 380 435 295 
3 435 434 463 
3 434 459 463 
3 295 486 380 
3 213 137 464 
3 177 137 213 
3 209 137 177 
3 137 436 464 
3 488 382 440 
3 481 465 466 
3 305 304 303 
3 158 488 305 
3 325 402 3 
3 402 381 438 
3 468 467 10 
3 220 311 303 
3 388 389 443 
3 22 389 388 
3 218 312 444 
3 386 312 218 
3 489 468 393 
3 489 467 468 
3 394 396 469 
3 395 394 469 
3 85 320 412 
3 246 320 85 
3 452 149 321 
3 133 149 452 
3 321 80 398 
3 322 80 321 
3 310 490 470 
3 498 471 472 
3 445 496 314 
3 322 496 445 
3 476 473 446 
3 414 413 474 
3 361 400 448 
3 447 400 361 
3 262 475 81 
3 261 475 262 
3 475 122 449 
3 261 122 475 
3 450 330 331 
3 244 330 450 
3 476 103 474 
3 90 89 21 
3 21 477 454 
3 144 143 478 
3 237 408 479 
3 492 480 479 
3 342 236 456 
3 495 408 481 
3 228 356 262 
3 357 356 228 
3 458 351 482 
3 121 351 458 
3 422 483 366 
3 53 204 460 
3 432 273 424 
3 76 273 432 
3 206 198 484 
3 269 206 484 
3 375 387 428 
3 427 387 375 
3 333 485 244 
3 242 212 429 
3 494 459 486 
3 425 459 494 
3 425 494 424 
3 295 433 486 
3 433 494 486 
3 432 487 461 
3 271 459 425 
3 463 459 271 
3 52 436 209 
3 376 436 52 
3 236 237 479 
3 466 495 481 
3 383 465 481 
3 466 465 383 
3 383 382 438 
3 158 307 488 
3 481 440 383 
3 238 440 481 
3 442 304 488 
3 303 304 442 
3 403 381 230 
3 32 381 403 
3 489 311 220 
3 22 311 489 
3 220 467 489 
3 10 467 220 
3 283 396 394 
3 397 396 283 
3 444 490 310 
3 319 490 444 
3 103 339 491 
3 472 399 478 
3 478 498 472 
3 103 491 474 
3 337 414 474 
3 104 414 337 
3 192 493 492 
3 239 493 192 
3 342 237 236 
3 386 237 342 
3 493 480 492 
3 456 235 493 
3 351 359 482 
3 360 359 351 
3 204 483 460 
3 94 483 204 
3 368 198 206 
3 199 198 368 
3 333 212 485 
3 88 212 333 
3 433 487 494 
3 377 487 433 
3 240 455 495 
3 192 455 240 
3 307 157 308 
3 158 157 307 
3 307 382 488 
3 438 382 307 
3 490 313 470 
3 319 313 490 
3 496 399 472 
3 322 399 496 
3 143 498 478 
3 338 498 143 
3 339 170 491 
3 93 491 171 
3 316 473 414 
3 446 473 316 
3 235 480 493 
3 479 480 235 
3 422 109 483 
3 110 109 422 
3 487 462 494 
3 432 462 487 
3 455 408 495 
3 479 408 455 
3 338 477 498 
3 415 477 338 
3 472 471 496 
3 140 497 498 
3 476 413 473 
3 474 413 476 
3 89 170 339 
3 171 170 89 
3 103 499 339 
3 390 499 103 
3 339 497 140 
3 496 471 499 
3 477 140 498 
3 21 140 477 
3 471 497 499 
3 498 497 471 
